<svg id="visual" viewBox="0 0 900 600" width="900" height="600" xmlns="http://www.w3.org/2000/svg" xmlns:xlink="http://www.w3.org/1999/xlink" version="1.1"><g transform="translate(384.24568477050343 308.9410636939398)"><path d="M60.5 -126.3C83 -91.8 109.1 -84.9 149.2 -68.5C189.4 -52 243.7 -26 264.5 12C285.3 50 272.5 100 247.6 142.9C222.7 185.7 185.6 221.5 142.3 219.8C99 218.1 49.5 179.1 12.8 156.8C-23.8 134.6 -47.7 129.2 -77.4 123.1C-107.1 116.9 -142.8 109.9 -143.4 89.3C-143.9 68.7 -109.5 34.3 -103.3 3.6C-97.1 -27.2 -119.1 -54.3 -123.3 -83.2C-127.4 -112.1 -113.7 -142.6 -90.2 -176.6C-66.7 -210.5 -33.3 -247.7 -7.2 -235.3C19 -222.9 38 -160.8 60.5 -126.3" fill="#1ecbe1"></path></g></svg>