<svg id="visual" viewBox="0 0 900 600" width="900" height="600" xmlns="http://www.w3.org/2000/svg" xmlns:xlink="http://www.w3.org/1999/xlink" version="1.1"><rect x="0" y="0" width="900" height="600" fill="#290b36"></rect><g transform="translate(499.5209125369334 262.08747576977777)"><path d="M108.6 -187.6C135.9 -172.4 149.8 -133.4 156.8 -98.2C163.8 -63 163.9 -31.5 152.9 -6.4C141.8 18.8 119.6 37.5 116.5 79.4C113.3 121.2 129.1 186.2 112.9 226.8C96.7 267.4 48.3 283.7 11.7 263.5C-25 243.3 -50 186.6 -87.7 158.4C-125.3 130.1 -175.7 130.3 -210.9 108.7C-246 87 -266 43.5 -259.5 3.8C-253 -36 -220 -72 -190 -102.6C-160 -133.2 -133 -158.4 -101.8 -171.4C-70.7 -184.4 -35.3 -185.2 2.7 -189.8C40.7 -194.4 81.3 -202.9 108.6 -187.6" fill="none" stroke="#16d760" stroke-width="15"></path></g></svg>