<svg id="visual" viewBox="0 0 900 600" width="900" height="600" xmlns="http://www.w3.org/2000/svg" xmlns:xlink="http://www.w3.org/1999/xlink" version="1.1"><rect x="0" y="0" width="900" height="600" fill="#290b36"></rect><g transform="translate(410.8679636715371 286.50081095782514)"><path d="M75.3 -144.5C100.5 -115.8 126 -101.6 163.2 -80C200.4 -58.3 249.2 -29.2 257.7 4.9C266.2 39 234.4 78 200.8 105.9C167.3 133.7 131.9 150.4 98.1 180.9C64.3 211.4 32.2 255.7 -0.9 257.3C-34 258.9 -68 217.8 -93.8 182.7C-119.7 147.6 -137.3 118.6 -147.7 89.1C-158 59.7 -161 29.8 -168.1 -4.1C-175.2 -38 -186.3 -76 -177.7 -108.5C-169.1 -141 -140.8 -167.9 -107.9 -192.2C-75 -216.6 -37.5 -238.3 -6.2 -227.5C25 -216.6 50 -173.3 75.3 -144.5" fill="#BB004B"></path></g></svg>