<svg id="visual" viewBox="0 0 900 600" width="900" height="600" xmlns="http://www.w3.org/2000/svg" xmlns:xlink="http://www.w3.org/1999/xlink" version="1.1"><rect x="0" y="0" width="900" height="600" fill="#290b36"></rect><g transform="translate(447.3119474449794 296.94448707974)"><path d="M103.9 -196.9C129.4 -165.2 141.4 -126.8 161.3 -92.9C181.2 -59 209.1 -29.5 218.3 5.3C227.6 40.2 218.1 80.3 203.6 123.6C189.1 166.9 169.6 213.4 134.8 236.3C100 259.2 50 258.6 11.8 238.1C-26.3 217.6 -52.7 177.2 -95.5 159C-138.4 140.7 -197.8 144.6 -212.6 121.8C-227.5 99 -197.7 49.5 -176.5 12.2C-155.3 -25 -142.6 -50 -129.6 -76C-116.6 -102 -103.3 -128.9 -81.7 -162.9C-60 -196.9 -30 -238 4.6 -245.9C39.2 -253.8 78.3 -228.7 103.9 -196.9" fill="#BB004B"></path></g></svg>