<svg id="visual" viewBox="0 0 900 600" width="900" height="600" xmlns="http://www.w3.org/2000/svg" xmlns:xlink="http://www.w3.org/1999/xlink" version="1.1"><rect x="0" y="0" width="900" height="600" fill="#290b36"></rect><g transform="translate(465.75860112357975 297.4277211678593)"><path d="M117.1 -207.2C149.9 -183.9 173.2 -148.7 183.8 -112.2C194.4 -75.7 192.2 -37.8 183 -5.3C173.7 27.2 157.4 54.3 136.4 72.7C115.3 91 89.4 100.5 65.9 136.9C42.3 173.3 21.2 236.7 -0.2 237.1C-21.7 237.5 -43.3 175.1 -80.1 146.3C-116.9 117.6 -168.9 122.5 -196.6 103.8C-224.2 85 -227.6 42.5 -216.4 6.5C-205.1 -29.5 -179.2 -59 -150.1 -75.2C-120.9 -91.5 -88.6 -94.5 -63.1 -121.9C-37.5 -149.3 -18.8 -201.1 11.7 -221.4C42.2 -241.7 84.3 -230.4 117.1 -207.2" fill="none" stroke="#c7d716" stroke-width="15"></path></g></svg>