<svg id="visual" viewBox="0 0 900 600" width="900" height="600" xmlns="http://www.w3.org/2000/svg" xmlns:xlink="http://www.w3.org/1999/xlink" version="1.1"><g transform="translate(452.87613986136546 359.4953812370786)"><path d="M124.2 -228C148.5 -201.2 147 -142.6 139.2 -99.3C131.3 -56 117.2 -28 135.1 10.3C153 48.7 202.9 97.3 196.8 116.4C190.6 135.4 128.3 124.9 86.1 113C44 101.2 22 88.1 1.8 85.1C-18.5 82 -37 89.1 -63.7 92C-90.4 94.9 -125.3 93.7 -146.2 77.7C-167.1 61.7 -174.1 30.8 -185.8 -6.7C-197.5 -44.3 -213.9 -88.7 -193.1 -104.8C-172.2 -121 -114.1 -109 -75.7 -127.7C-37.3 -146.3 -18.7 -195.7 15.7 -222.8C50 -249.9 100 -254.9 124.2 -228" fill="#1ecbe1"></path></g></svg>